# Blender 4.4.0
# www.blender.org
mtllib Untitled.mtl
o UCX_NewspaperFolded_Newspaper_0_0
v 0.040317 -0.055599 0.000238
v 0.037956 -0.055599 0.001456
v 0.037900 -0.055951 0.001429
v 0.040237 -0.055951 0.000219
v 0.040317 -0.055599 0.000091
v 0.040317 0.059732 0.000238
v 0.037956 0.056184 0.001456
v 0.037462 -0.055599 0.001612
v 0.037741 -0.056076 0.001456
v 0.038283 -0.056076 0.001176
v 0.040237 -0.055951 0.000110
v 0.040030 -0.056076 0.000238
v 0.040030 -0.056076 0.000091
v 0.040030 -0.055599 0.000067
v 0.040317 0.059732 0.000091
v 0.040237 0.059868 0.000219
v 0.039017 0.058879 0.000780
v 0.039073 0.058515 0.000807
v 0.037900 0.056627 0.001429
v 0.037741 0.056673 0.001456
v 0.037741 0.056184 0.001491
v 0.035460 0.056127 0.001627
v -0.034050 -0.055599 0.004054
v -0.038150 -0.055997 0.003901
v -0.038206 -0.056247 0.003695
v 0.029374 -0.056247 0.001540
v 0.037741 -0.056247 0.001211
v 0.039408 -0.056247 0.000275
v -0.036778 -0.056076 -0.000003
v -0.036595 0.059732 -0.000043
v 0.040030 0.059732 0.000067
v 0.040030 0.059925 0.000091
v 0.040237 0.059868 0.000110
v 0.040030 0.059925 0.000238
v 0.039408 0.059436 0.000524
v 0.038546 0.058924 0.000807
v -0.034274 0.056127 0.004004
v -0.036595 -0.055599 0.004100
v -0.038836 -0.056076 0.003695
v -0.037456 -0.055599 0.004050
v -0.038302 -0.055599 0.003905
v -0.039051 -0.055599 0.003695
v -0.040088 -0.056247 0.002753
v -0.039865 -0.056076 0.003244
v 0.038020 -0.056247 0.000275
v -0.038046 -0.056247 0.000297
v -0.038716 -0.056076 0.000297
v -0.037416 -0.055951 0.000028
v -0.037432 -0.055599 -0.000003
v -0.037432 0.059732 -0.000003
v -0.036778 0.059925 -0.000003
v 0.038020 0.059925 0.000238
v -0.039378 0.057162 0.003187
v -0.038421 0.056673 0.003646
v -0.036810 0.056127 0.004050
v -0.037448 0.056036 0.004011
v -0.038948 0.056206 0.003698
v -0.040064 0.056184 0.003244
v -0.040064 -0.055599 0.003244
v -0.040551 -0.056247 0.002275
v -0.040639 -0.056076 0.002753
v -0.040056 -0.056247 0.001221
v -0.039833 -0.056076 0.000761
v -0.038948 -0.055599 0.000297
v -0.038948 0.058993 0.000297
v -0.038581 0.059732 0.000236
v -0.037416 0.059868 0.000028
v -0.038254 0.059868 0.000205
v -0.037895 0.059925 0.000236
v -0.040615 0.057958 0.002219
v -0.039905 0.057116 0.003138
v -0.038980 0.056627 0.003602
v -0.039123 0.059436 0.000704
v -0.039937 0.056730 0.003246
v -0.040718 0.057207 0.002750
v -0.040814 0.056730 0.002753
v -0.040814 -0.055599 0.002753
v -0.040551 -0.056247 0.001679
v -0.041005 -0.056076 0.002275
v -0.040575 -0.056076 0.001221
v -0.040032 -0.055599 0.000761
v -0.040032 0.058515 0.000761
v -0.038820 0.059493 0.000289
v -0.039921 0.058993 0.000763
v -0.039474 0.059379 0.000656
v -0.040551 0.058458 0.001598
v -0.040838 0.058413 0.001557
v -0.040942 0.057912 0.002156
v -0.040631 0.057457 0.002647
v -0.039993 0.058924 0.001167
v -0.040312 0.058879 0.001123
v -0.041077 0.057537 0.002284
v -0.041165 0.057196 0.002275
v -0.041165 -0.055599 0.002275
v -0.040998 -0.056076 0.001679
v -0.040742 -0.055599 0.001221
v -0.040742 0.058026 0.001221
v -0.040647 0.058526 0.001222
v -0.041077 0.058026 0.001669
v -0.041149 0.057548 0.001679
v -0.041149 -0.055599 0.001679
vn 0.4541 -0.1397 0.8799
vn 0.4546 -0.1494 0.8781
vn 0.9753 -0.2208 -0.0000
vn 1.0000 -0.0000 -0.0000
vn 0.4586 -0.0000 0.8887
vn 0.3004 -0.0000 0.9538
vn 0.2982 -0.1202 0.9469
vn 0.4273 -0.3653 0.8270
vn 0.4283 -0.3631 0.8275
vn 0.2774 -0.1474 0.9494
vn 0.3962 -0.5465 0.7378
vn 0.5167 -0.8562 -0.0000
vn 0.1423 -0.0855 -0.9861
vn 0.0829 -0.0499 -0.9953
vn 0.0831 -0.0000 -0.9965
vn 0.8632 0.5049 -0.0000
vn 0.8631 0.5050 -0.0000
vn 0.2224 0.2587 0.9400
vn 0.3155 0.1177 0.9416
vn 0.3233 0.1090 0.9400
vn 0.3341 0.0995 0.9373
vn 0.1905 0.0839 0.9781
vn 0.1595 0.0703 0.9847
vn 0.1599 0.0007 0.9871
vn 0.0594 0.0009 0.9982
vn 0.0341 0.0005 0.9994
vn 0.0326 -0.2925 0.9557
vn 0.0241 -0.6387 0.7691
vn 0.0217 -0.7309 0.6821
vn 0.0225 -0.8204 0.5714
vn 0.2832 -0.7870 0.5481
vn 0.0257 -0.5778 0.8158
vn 0.2855 -0.7974 0.5316
vn 0.2601 -0.8472 0.4632
vn 0.2644 -0.9644 -0.0000
vn 0.0008 -0.7349 -0.6782
vn 0.0012 -0.0500 -0.9987
vn 0.0009 -0.0003 -1.0000
vn 0.0014 -0.0000 -1.0000
vn 0.0824 0.1224 -0.9890
vn 0.1495 0.2221 -0.9635
vn 0.2647 0.9643 -0.0000
vn 0.1728 0.3246 0.9299
vn 0.1894 0.2970 0.9359
vn 0.0879 0.3641 0.9272
vn 0.0791 0.2500 0.9650
vn 0.2128 0.1716 0.9619
vn 0.3116 0.1172 0.9430
vn 0.0321 0.2663 0.9634
vn 0.0336 0.1679 0.9852
vn 0.0575 0.0710 0.9958
vn 0.0182 0.0005 0.9998
vn 0.0158 -0.4960 0.8682
vn -0.1638 -0.6050 0.7792
vn -0.0562 -0.2622 0.9634
vn -0.1683 -0.0741 0.9829
vn -0.2681 -0.1118 0.9569
vn -0.2724 -0.1228 0.9543
vn -0.0000 -1.0000 -0.0000
vn -0.2245 -0.8291 0.5121
vn -0.2011 -0.8934 0.4018
vn -0.0000 -0.8525 -0.5228
vn -0.0001 -0.8691 -0.4947
vn -0.1312 -0.5151 -0.8471
vn -0.1350 -0.4709 -0.8718
vn -0.0665 -0.0910 -0.9936
vn -0.0003 -0.0003 -1.0000
vn -0.0473 0.1599 -0.9860
vn 0.0012 0.2044 -0.9789
vn 0.0014 0.1228 -0.9924
vn -0.0479 -0.0000 -0.9989
vn -0.0000 1.0000 -0.0000
vn -0.0000 0.7297 0.6838
vn 0.0030 0.6876 0.7261
vn 0.0090 0.6119 0.7909
vn 0.0152 0.5378 0.8429
vn 0.0194 0.4867 0.8734
vn 0.0216 0.4553 0.8901
vn 0.0181 0.0005 0.9998
vn -0.0583 0.0003 0.9983
vn -0.3950 -0.1782 0.9012
vn -0.0609 0.0004 0.9981
vn -0.1688 0.0004 0.9857
vn -0.2043 0.0006 0.9789
vn -0.2698 0.0002 0.9629
vn -0.3765 0.0003 0.9264
vn -0.4067 -0.0000 0.9135
vn -0.4010 -0.1674 0.9007
vn -0.2683 -0.8656 0.4228
vn -0.2847 -0.9182 0.2754
vn -0.5230 -0.2183 0.8239
vn -0.1943 -0.8852 -0.4227
vn -0.2122 -0.8332 -0.5106
vn -0.3772 -0.1827 -0.9079
vn -0.1934 -0.0937 -0.9766
vn -0.1928 -0.0953 -0.9766
vn -0.1943 -0.0000 -0.9809
vn -0.2036 0.0200 -0.9789
vn -0.1976 0.2407 -0.9503
vn -0.0680 0.2302 -0.9708
vn -0.1012 0.8718 -0.4793
vn -0.0995 0.8796 -0.4652
vn -0.0000 0.7299 0.6835
vn -0.1261 0.6812 0.7212
vn -0.1245 0.5492 0.8264
vn -0.1100 0.5574 0.8230
vn -0.0377 0.7388 0.6729
vn -0.0502 0.7390 0.6718
vn -0.1029 0.3773 0.9204
vn -0.1080 0.3608 0.9264
vn -0.1776 0.2055 0.9624
vn -0.3250 0.1863 0.9272
vn -0.3766 0.0846 0.9225
vn -0.4838 0.1099 0.8682
vn -0.4911 0.1036 0.8649
vn -0.5479 -0.0000 0.8365
vn -0.5371 -0.1974 0.8201
vn -0.3392 -0.9040 0.2603
vn -0.3513 -0.9363 -0.0000
vn -0.7616 -0.2799 0.5844
vn -0.2962 -0.9001 -0.3196
vn -0.2791 -0.8482 -0.4502
vn -0.5146 -0.2149 -0.8301
vn -0.3881 -0.1620 -0.9073
vn -0.3933 -0.0000 -0.9194
vn -0.3932 -0.0000 -0.9194
vn -0.4263 0.0941 -0.8997
vn -0.2658 0.0522 -0.9626
vn -0.4920 0.3122 -0.8127
vn -0.5119 0.3777 -0.7715
vn -0.3888 0.9197 -0.0551
vn -0.1992 0.2644 -0.9436
vn -0.2005 0.8860 0.4181
vn -0.1774 0.8756 0.4493
vn -0.2080 0.7717 0.6010
vn -0.2225 0.7666 0.6023
vn -0.2301 0.6370 0.7357
vn -0.1999 0.6408 0.7412
vn -0.1103 0.7634 0.6364
vn -0.1787 0.7748 0.6065
vn -0.3083 0.2801 0.9091
vn -0.3403 0.4575 0.8215
vn -0.3877 0.2781 0.8788
vn -0.2051 0.8290 0.5202
vn -0.1912 0.8171 0.5439
vn -0.4782 0.4724 0.7404
vn -0.5337 0.4396 0.7224
vn -0.7205 0.1668 0.6731
vn -0.7224 0.1489 0.6753
vn -0.8062 -0.0000 0.5917
vn -0.7785 -0.2600 0.5713
vn -0.3568 -0.9342 -0.0048
vn -0.3390 -0.8873 -0.3127
vn -0.9484 -0.3167 -0.0127
vn -0.7118 -0.2496 -0.6565
vn -0.5341 -0.1873 -0.8244
vn -0.5437 -0.0000 -0.8393
vn -0.5950 0.1157 -0.7954
vn -0.5926 0.1418 -0.7929
vn -0.4333 0.1050 -0.8951
vn -0.6675 0.4729 -0.5751
vn -0.6324 0.5923 -0.4993
vn -0.1929 0.7807 0.5944
vn -0.2078 0.7818 0.5879
vn -0.7519 0.5641 0.3413
vn -0.7376 0.6440 -0.2029
vn -0.8411 0.4230 -0.3371
vn -0.8446 0.4191 0.3332
vn -0.9520 0.2395 0.1905
vn -0.9868 0.1495 0.0620
vn -0.9996 -0.0000 -0.0269
vn -0.9529 -0.3023 -0.0256
vn -0.7277 -0.2308 -0.6459
vn -0.7479 -0.0000 -0.6638
vn -0.7963 0.1069 -0.5953
vn -0.7915 0.1528 -0.5917
s 0
usemtl random_material.004
f 1//1 2//1 3//1
f 1//2 3//2 4//2
f 1//3 4//3 11//3
f 1//3 11//3 5//3
f 1//4 5//4 15//4
f 1//4 15//4 6//4
f 1//5 6//5 7//5
f 1//5 7//5 2//5
f 2//6 7//6 8//6
f 2//7 8//7 3//7
f 3//8 9//8 10//8
f 3//9 10//9 4//9
f 3//10 8//10 9//10
f 4//11 10//11 12//11
f 4//12 12//12 13//12
f 4//12 13//12 11//12
f 5//13 11//13 13//13
f 5//14 13//14 14//14
f 5//15 14//15 31//15
f 5//15 31//15 15//15
f 6//16 15//16 33//16
f 6//17 33//17 16//17
f 6//18 16//18 17//18
f 6//19 17//19 18//19
f 6//20 18//20 19//20
f 6//21 19//21 7//21
f 7//22 19//22 20//22
f 7//23 20//23 21//23
f 7//24 21//24 8//24
f 8//25 21//25 22//25
f 8//26 22//26 23//26
f 8//27 23//27 9//27
f 9//28 24//28 25//28
f 9//29 25//29 26//29
f 9//30 26//30 27//30
f 9//31 27//31 10//31
f 9//32 23//32 24//32
f 10//33 27//33 12//33
f 12//34 27//34 28//34
f 12//35 28//35 13//35
f 13//36 28//36 29//36
f 13//37 29//37 14//37
f 14//38 29//38 30//38
f 14//39 30//39 31//39
f 15//40 31//40 32//40
f 15//41 32//41 33//41
f 16//42 33//42 32//42
f 16//42 32//42 34//42
f 16//43 34//43 35//43
f 16//44 35//44 17//44
f 17//45 35//45 36//45
f 17//46 36//46 20//46
f 17//47 20//47 19//47
f 17//48 19//48 18//48
f 20//49 36//49 37//49
f 20//50 37//50 22//50
f 20//51 22//51 21//51
f 22//26 37//26 23//26
f 23//52 37//52 38//52
f 23//53 38//53 24//53
f 24//54 39//54 25//54
f 24//55 38//55 40//55
f 24//56 40//56 41//56
f 24//57 41//57 42//57
f 24//58 42//58 39//58
f 25//59 43//59 60//59
f 25//59 60//59 78//59
f 25//59 78//59 62//59
f 25//59 62//59 46//59
f 25//59 46//59 45//59
f 25//59 45//59 28//59
f 25//59 28//59 27//59
f 25//59 27//59 26//59
f 25//60 39//60 44//60
f 25//61 44//61 43//61
f 28//62 45//62 29//62
f 29//63 45//63 46//63
f 29//64 46//64 47//64
f 29//65 47//65 48//65
f 29//66 48//66 49//66
f 29//67 49//67 30//67
f 30//68 50//68 51//68
f 30//69 51//69 32//69
f 30//70 32//70 31//70
f 30//71 49//71 50//71
f 32//72 51//72 69//72
f 32//72 69//72 52//72
f 32//72 52//72 34//72
f 34//73 52//73 53//73
f 34//74 53//74 54//74
f 34//75 54//75 55//75
f 34//76 55//76 37//76
f 34//77 37//77 35//77
f 35//78 37//78 36//78
f 37//79 55//79 38//79
f 38//80 55//80 40//80
f 39//81 42//81 44//81
f 40//82 55//82 56//82
f 40//83 56//83 41//83
f 41//84 56//84 57//84
f 41//85 57//85 42//85
f 42//86 57//86 58//86
f 42//87 58//87 59//87
f 42//88 59//88 44//88
f 43//89 44//89 61//89
f 43//90 61//90 60//90
f 44//91 59//91 61//91
f 46//92 62//92 63//92
f 46//93 63//93 47//93
f 47//94 63//94 64//94
f 47//95 64//95 49//95
f 47//96 49//96 48//96
f 49//97 64//97 65//97
f 49//97 65//97 50//97
f 50//98 65//98 66//98
f 50//99 66//99 67//99
f 50//100 67//100 51//100
f 51//101 67//101 68//101
f 51//102 68//102 69//102
f 52//103 69//103 53//103
f 53//104 70//104 71//104
f 53//105 71//105 72//105
f 53//106 72//106 54//106
f 53//107 69//107 73//107
f 53//108 73//108 70//108
f 54//109 72//109 55//109
f 55//110 72//110 56//110
f 56//111 72//111 57//111
f 57//112 72//112 74//112
f 57//113 74//113 58//113
f 58//114 74//114 75//114
f 58//115 75//115 76//115
f 58//116 76//116 77//116
f 58//116 77//116 59//116
f 59//117 77//117 61//117
f 60//118 61//118 79//118
f 60//119 79//119 78//119
f 61//120 77//120 79//120
f 62//121 78//121 80//121
f 62//122 80//122 63//122
f 63//123 80//123 81//123
f 63//124 81//124 64//124
f 64//125 81//125 82//125
f 64//126 82//126 65//126
f 65//127 82//127 83//127
f 65//128 83//128 66//128
f 66//129 83//129 84//129
f 66//130 84//130 85//130
f 66//131 85//131 68//131
f 66//132 68//132 67//132
f 68//133 85//133 73//133
f 68//134 73//134 69//134
f 70//135 86//135 87//135
f 70//136 87//136 88//136
f 70//137 88//137 89//137
f 70//138 89//138 71//138
f 70//139 73//139 90//139
f 70//140 90//140 86//140
f 71//141 74//141 72//141
f 71//142 89//142 75//142
f 71//143 75//143 74//143
f 73//144 85//144 91//144
f 73//145 91//145 90//145
f 75//146 89//146 88//146
f 75//147 88//147 92//147
f 75//148 92//148 93//148
f 75//149 93//149 76//149
f 76//150 93//150 94//150
f 76//150 94//150 77//150
f 77//151 94//151 79//151
f 78//152 79//152 95//152
f 78//153 95//153 80//153
f 79//154 94//154 95//154
f 80//155 95//155 96//155
f 80//156 96//156 81//156
f 81//157 96//157 97//157
f 81//157 97//157 82//157
f 82//158 97//158 98//158
f 82//159 98//159 84//159
f 82//160 84//160 83//160
f 84//161 98//161 91//161
f 84//162 91//162 85//162
f 86//163 90//163 91//163
f 86//164 91//164 87//164
f 87//165 99//165 88//165
f 87//166 91//166 98//166
f 87//167 98//167 99//167
f 88//168 99//168 92//168
f 92//169 99//169 93//169
f 93//170 99//170 100//170
f 93//171 100//171 101//171
f 93//171 101//171 94//171
f 94//172 101//172 95//172
f 95//173 101//173 96//173
f 96//174 101//174 100//174
f 96//174 100//174 97//174
f 97//175 100//175 99//175
f 97//176 99//176 98//176
