# Blender 4.4.0
# www.blender.org
mtllib Untitled.mtl
o UCX_Cube_Mat.2_0_0
v -0.055000 0.055000 -0.003000
v -0.055000 0.055000 0.003000
v 0.055000 0.055000 -0.003000
v -0.055000 -0.055000 -0.003000
v -0.055000 -0.055000 0.003000
v 0.055000 0.055000 0.003000
v 0.055000 -0.055000 -0.003000
v 0.055000 -0.055000 0.003000
vn -0.0000 1.0000 -0.0000
vn -0.0000 -0.0000 -1.0000
vn -1.0000 -0.0000 -0.0000
vn -0.0000 -0.0000 1.0000
vn 1.0000 -0.0000 -0.0000
vn -0.0000 -1.0000 -0.0000
s 0
usemtl random_material.007
f 1//1 2//1 6//1
f 1//1 6//1 3//1
f 1//2 3//2 7//2
f 1//2 7//2 4//2
f 1//3 4//3 5//3
f 1//3 5//3 2//3
f 2//4 5//4 8//4
f 2//4 8//4 6//4
f 3//5 6//5 8//5
f 3//5 8//5 7//5
f 4//6 7//6 8//6
f 4//6 8//6 5//6
