# Blender 4.4.0
# www.blender.org
mtllib Untitled.mtl
o UCX_envelope_low_envelope_0_0
v -0.054794 0.039758 0.000568
v -0.054794 0.039742 -0.000091
v -0.054999 0.039484 0.000207
v -0.054999 0.039492 0.000568
v -0.051844 0.036359 0.001691
v -0.025970 0.036493 0.001691
v 0.054796 0.039758 0.000568
v -0.051844 0.036344 -0.001289
v -0.054999 0.039476 -0.000091
v 0.054796 0.039742 -0.000091
v -0.054999 0.031348 0.000568
v -0.054999 -0.039976 -0.000091
v -0.051844 -0.036843 0.000635
v -0.051392 0.035702 0.001691
v 0.025972 0.036493 0.001691
v 0.051846 0.036359 0.001691
v 0.055001 0.039492 0.000568
v 0.055001 0.039484 0.000207
v -0.051941 0.018630 -0.001289
v 0.051846 0.036344 -0.001289
v 0.055001 0.039476 -0.000091
v -0.051941 -0.019130 -0.001289
v -0.051844 -0.036843 -0.001289
v -0.054794 -0.040242 -0.000091
v -0.025970 -0.036977 0.000635
v 0.000001 -0.012372 0.001168
v 0.051222 0.035702 0.001691
v 0.051846 -0.036843 0.000635
v 0.055001 -0.039976 -0.000091
v 0.055001 0.031293 0.000568
v 0.051943 0.018630 -0.001289
v -0.025970 -0.036977 -0.001289
v 0.054796 -0.040242 -0.000091
v 0.025972 -0.036977 0.000635
v 0.051846 -0.036843 -0.001289
v 0.051943 -0.019130 -0.001289
v 0.025972 -0.036977 -0.001289
vn -0.7920 0.6103 -0.0145
vn -0.7928 0.6093 -0.0133
vn -0.1957 0.1504 0.9691
vn -0.0016 0.3125 0.9499
vn -0.0000 0.3252 0.9456
vn -0.0000 0.9997 -0.0238
vn -0.2078 0.1597 -0.9650
vn -0.7928 0.6093 -0.0159
vn -0.0000 0.3325 -0.9431
vn -1.0000 -0.0000 -0.0000
vn -0.3354 -0.0000 0.9421
vn -0.3230 -0.0087 0.9464
vn -0.2108 -0.0141 0.9774
vn -0.0210 -0.0144 0.9997
vn -0.0000 -0.0000 1.0000
vn 0.0016 0.3125 0.9499
vn 0.1956 0.1504 0.9691
vn 0.7928 0.6093 -0.0133
vn 0.7920 0.6103 -0.0145
vn -0.3533 0.0019 -0.9355
vn -0.0000 -0.0000 -1.0000
vn -0.3648 -0.0000 -0.9311
vn 0.7928 0.6093 -0.0160
vn 0.2078 0.1598 -0.9650
vn -0.3533 -0.0019 -0.9355
vn -0.2078 -0.1597 -0.9650
vn -0.1287 -0.0990 0.9867
vn -0.0011 -0.2079 0.9781
vn -0.0001 -0.0215 0.9998
vn -0.0034 -0.0145 0.9999
vn -0.0000 -0.0109 0.9999
vn 0.0152 -0.0144 0.9998
vn 0.2108 -0.0141 0.9774
vn 0.3228 -0.0088 0.9464
vn 0.3354 -0.0000 0.9421
vn 1.0000 -0.0000 -0.0000
vn 1.0000 -0.0000 0.0001
vn 0.3533 0.0019 -0.9355
vn 0.3648 -0.0000 -0.9311
vn -0.0017 -0.3311 -0.9436
vn -0.0000 -0.3444 -0.9388
vn -0.0000 -0.2170 0.9762
vn -0.0000 -0.0217 0.9998
vn 0.0001 -0.0215 0.9998
vn 0.0034 -0.0145 0.9999
vn 0.1287 -0.0989 0.9867
vn 0.0011 -0.2079 0.9781
vn 0.2078 -0.1597 -0.9650
vn 0.3533 -0.0019 -0.9355
vn 0.0017 -0.3311 -0.9436
s 0
usemtl random_material.012
f 1//1 2//1 3//1
f 1//2 3//2 4//2
f 1//3 4//3 5//3
f 1//4 5//4 6//4
f 1//5 6//5 15//5
f 1//5 15//5 7//5
f 1//6 7//6 10//6
f 1//6 10//6 2//6
f 2//7 8//7 9//7
f 2//8 9//8 3//8
f 2//9 10//9 20//9
f 2//9 20//9 8//9
f 3//10 9//10 12//10
f 3//10 12//10 11//10
f 3//10 11//10 4//10
f 4//11 11//11 5//11
f 5//12 11//12 12//12
f 5//13 12//13 13//13
f 5//14 13//14 14//14
f 5//15 14//15 27//15
f 5//15 27//15 16//15
f 5//15 16//15 15//15
f 5//15 15//15 6//15
f 7//16 15//16 16//16
f 7//17 16//17 17//17
f 7//18 17//18 18//18
f 7//19 18//19 10//19
f 8//20 19//20 9//20
f 8//21 20//21 31//21
f 8//21 31//21 36//21
f 8//21 36//21 35//21
f 8//21 35//21 37//21
f 8//21 37//21 32//21
f 8//21 32//21 23//21
f 8//21 23//21 22//21
f 8//21 22//21 19//21
f 9//22 19//22 22//22
f 9//22 22//22 12//22
f 10//23 18//23 21//23
f 10//24 21//24 20//24
f 12//25 22//25 23//25
f 12//26 23//26 24//26
f 12//27 24//27 13//27
f 13//28 24//28 25//28
f 13//29 25//29 26//29
f 13//30 26//30 14//30
f 14//31 26//31 27//31
f 16//32 27//32 28//32
f 16//33 28//33 29//33
f 16//34 29//34 30//34
f 16//35 30//35 17//35
f 17//36 30//36 29//36
f 17//36 29//36 21//36
f 17//37 21//37 18//37
f 20//38 21//38 31//38
f 21//39 29//39 36//39
f 21//39 36//39 31//39
f 23//40 32//40 24//40
f 24//41 32//41 37//41
f 24//41 37//41 33//41
f 24//42 33//42 34//42
f 24//42 34//42 25//42
f 25//43 34//43 26//43
f 26//44 34//44 28//44
f 26//45 28//45 27//45
f 28//46 33//46 29//46
f 28//47 34//47 33//47
f 29//48 33//48 35//48
f 29//49 35//49 36//49
f 33//50 37//50 35//50
