# Blender 4.4.0
# www.blender.org
mtllib Untitled.mtl
o UCX_corrugated_sheet_b_06_Corrugated_Sheets_SHD_0_0
v 0.053682 0.047104 -0.000808
v 0.053757 0.043392 0.000823
v 0.053693 0.047086 -0.001672
v -0.055447 0.044362 -0.001478
v -0.055458 0.044371 -0.000614
v -0.055382 0.040677 0.001010
v 0.053823 0.039726 0.000973
v 0.053833 0.039708 0.000108
v 0.053898 0.036098 -0.001474
v 0.055200 -0.037024 -0.001727
v -0.054178 -0.025242 -0.001946
v -0.054439 -0.010643 -0.001911
v -0.054905 0.014915 -0.001755
v -0.054645 0.000308 -0.001832
v -0.055252 0.033364 -0.001437
v -0.055317 0.037012 0.001105
v -0.053929 -0.039840 -0.000976
v -0.053994 -0.036248 0.000661
v 0.054072 0.025063 0.001266
v 0.054018 0.028711 0.001110
v 0.055070 -0.029739 0.001027
v 0.055341 -0.044411 -0.000148
v 0.055265 -0.040690 -0.001696
v -0.053918 -0.039849 -0.001840
v -0.053853 -0.043506 -0.001746
v -0.054059 -0.032601 0.000729
v -0.053788 -0.047208 0.000700
v 0.054332 0.010493 0.001294
v -0.053788 -0.047227 -0.000165
v 0.055330 -0.044392 0.000716
v 0.054799 -0.015057 0.001150
vn 0.9996 0.0257 0.0121
vn -0.0250 0.9995 -0.0217
vn -0.0251 0.9996 -0.0110
vn -0.0084 0.4023 0.9155
vn -0.0084 0.4020 0.9156
vn 0.9998 0.0183 0.0122
vn 0.9998 0.0199 0.0035
vn 0.0007 0.0409 0.9992
vn 0.9998 0.0187 -0.0016
vn 0.9989 0.0179 -0.0440
vn 0.0021 0.0007 -1.0000
vn 0.0009 0.0024 -1.0000
vn -0.0010 0.0061 -1.0000
vn -0.0020 0.0094 -1.0000
vn -0.9895 -0.0169 -0.1432
vn -0.9991 -0.0179 -0.0390
vn -0.9998 -0.0178 -0.0123
vn -0.9998 -0.0176 0.0067
vn -0.9998 -0.0181 -0.0080
vn -0.9998 -0.0182 0.0001
vn -0.9998 -0.0181 0.0046
vn 0.0006 0.0260 0.9997
vn 0.0007 0.0200 0.9998
vn 0.9955 0.0188 0.0929
vn 0.9996 0.0180 0.0202
vn 0.9998 0.0180 0.0122
vn 0.9998 0.0179 0.0072
vn 0.9998 0.0179 0.0002
vn 0.9998 0.0178 -0.0059
vn 0.9998 0.0177 -0.0065
vn 0.0013 -0.0085 -1.0000
vn 0.0012 -0.0073 -1.0000
vn -0.9992 -0.0181 -0.0369
vn -0.9792 -0.0170 -0.2020
vn -0.8882 -0.0134 -0.4593
vn -0.9996 -0.0181 -0.0234
vn -0.9997 -0.0181 -0.0135
vn -0.9998 -0.0181 -0.0123
vn -0.9997 -0.0182 0.0168
vn -0.9899 -0.0186 0.1405
vn -0.0029 -0.0049 1.0000
vn -0.0013 0.0019 1.0000
vn -0.9998 -0.0196 -0.0051
vn -0.9998 -0.0190 0.0004
vn -0.9998 -0.0188 0.0015
vn -0.9989 -0.0186 0.0428
vn 0.9972 0.0180 0.0726
vn 0.9978 0.0179 0.0633
vn 0.9998 0.0175 0.0121
vn 0.9965 0.0177 0.0816
vn -0.0017 -0.0084 1.0000
vn 0.0004 -0.0212 0.9998
vn 0.0258 -0.9994 0.0216
vn 0.0258 -0.9994 0.0214
vn 0.0102 -0.3908 -0.9204
vn 0.0103 -0.3838 -0.9233
vn 0.0011 -0.0256 -0.9997
vn -0.0025 -0.0057 1.0000
s 0
usemtl random_material.001
f 1//1 2//1 3//1
f 1//2 3//2 4//2
f 1//3 4//3 5//3
f 1//4 5//4 6//4
f 1//5 6//5 2//5
f 2//6 7//6 8//6
f 2//7 8//7 3//7
f 2//8 6//8 7//8
f 3//9 8//9 9//9
f 3//10 9//10 10//10
f 3//11 10//11 11//11
f 3//12 11//12 12//12
f 3//13 12//13 13//13
f 3//14 13//14 4//14
f 4//15 13//15 14//15
f 4//16 14//16 15//16
f 4//17 15//17 5//17
f 5//18 16//18 6//18
f 5//19 15//19 17//19
f 5//20 17//20 18//20
f 5//21 18//21 16//21
f 6//22 16//22 7//22
f 7//23 16//23 19//23
f 7//24 19//24 20//24
f 7//25 20//25 21//25
f 7//26 21//26 8//26
f 8//27 21//27 22//27
f 8//28 22//28 9//28
f 9//29 22//29 10//29
f 10//30 22//30 23//30
f 10//31 23//31 24//31
f 10//32 24//32 11//32
f 11//33 24//33 14//33
f 11//34 14//34 12//34
f 12//35 14//35 13//35
f 14//36 24//36 15//36
f 15//37 24//37 25//37
f 15//38 25//38 17//38
f 16//39 18//39 26//39
f 16//40 26//40 27//40
f 16//41 27//41 28//41
f 16//42 28//42 19//42
f 17//43 25//43 29//43
f 17//44 29//44 27//44
f 17//45 27//45 18//45
f 18//46 27//46 26//46
f 19//47 28//47 20//47
f 20//48 28//48 21//48
f 21//49 30//49 22//49
f 21//50 28//50 31//50
f 21//51 31//51 27//51
f 21//52 27//52 30//52
f 22//53 30//53 27//53
f 22//54 27//54 29//54
f 22//55 29//55 25//55
f 22//56 25//56 23//56
f 23//57 25//57 24//57
f 27//58 31//58 28//58
