# Blender 4.4.0
# www.blender.org
mtllib Untitled.mtl
o UCX_Pipe_Pipe_0_0
v 0.017330 -0.036021 0.000000
v 0.016994 -0.036021 0.003379
v 0.016882 -0.036679 0.003355
v 0.017211 -0.036679 0.000000
v 0.016882 -0.036679 -0.003355
v 0.016994 -0.036021 -0.003379
v 0.017330 0.036021 -0.000000
v 0.016010 -0.036021 0.006629
v 0.016994 0.036021 0.003379
v 0.015902 -0.036679 0.006585
v 0.015644 -0.036932 0.006477
v 0.016607 -0.036932 0.003301
v 0.016930 -0.036932 0.000000
v 0.016607 -0.036932 -0.003301
v 0.015644 -0.036932 -0.006477
v 0.015902 -0.036679 -0.006585
v 0.016010 -0.036021 -0.006629
v 0.016994 0.036021 -0.003379
v 0.016882 0.036679 -0.003355
v 0.017211 0.036679 -0.000000
v 0.016882 0.036679 0.003355
v 0.014409 -0.036021 0.009625
v 0.016010 0.036021 0.006629
v 0.014310 -0.036679 0.009561
v 0.014080 -0.036932 0.009405
v 0.014080 -0.036932 -0.009405
v 0.014310 -0.036679 -0.009561
v 0.014409 -0.036021 -0.009625
v 0.016010 0.036021 -0.006629
v 0.015902 0.036679 -0.006585
v 0.015644 0.036932 -0.006477
v 0.016607 0.036932 -0.003301
v 0.016930 0.036932 -0.000000
v 0.016607 0.036932 0.003301
v 0.015644 0.036932 0.006477
v 0.015902 0.036679 0.006585
v 0.012251 -0.036021 0.012251
v 0.012170 -0.036679 0.012170
v 0.014409 0.036021 0.009625
v 0.011973 -0.036932 0.011973
v 0.011973 -0.036932 -0.011973
v 0.012170 -0.036679 -0.012170
v 0.012251 -0.036021 -0.012251
v 0.014409 0.036021 -0.009625
v 0.014310 0.036679 -0.009561
v 0.014080 0.036932 -0.009405
v 0.014080 0.036932 0.009405
v 0.014310 0.036679 0.009561
v 0.009625 -0.036021 0.014409
v 0.012251 0.036021 0.012251
v 0.009561 -0.036679 0.014311
v 0.012170 0.036679 0.012170
v 0.009405 -0.036932 0.014080
v 0.009405 -0.036932 -0.014080
v 0.009561 -0.036679 -0.014310
v 0.009625 -0.036021 -0.014409
v 0.012251 0.036021 -0.012251
v 0.012170 0.036679 -0.012170
v 0.011973 0.036932 -0.011973
v 0.011973 0.036932 0.011973
v 0.006629 -0.036021 0.016010
v 0.006585 -0.036679 0.015902
v 0.009625 0.036021 0.014409
v 0.009561 0.036679 0.014310
v 0.006477 -0.036932 0.015644
v 0.006477 -0.036932 -0.015644
v 0.006585 -0.036679 -0.015902
v 0.006629 -0.036021 -0.016010
v 0.009625 0.036021 -0.014409
v 0.009561 0.036679 -0.014311
v 0.009405 0.036932 -0.014080
v 0.009405 0.036932 0.014080
v 0.003379 -0.036021 0.016994
v 0.003355 -0.036679 0.016882
v 0.006629 0.036021 0.016010
v 0.006585 0.036679 0.015902
v 0.003301 -0.036932 0.016607
v 0.003301 -0.036932 -0.016607
v 0.003355 -0.036679 -0.016882
v 0.003379 -0.036021 -0.016994
v 0.006629 0.036021 -0.016010
v 0.006585 0.036679 -0.015902
v 0.006477 0.036932 -0.015644
v 0.006477 0.036932 0.015644
v 0.000000 -0.036021 0.017330
v 0.003379 0.036021 0.016994
v 0.000000 -0.036679 0.017211
v 0.003355 0.036679 0.016882
v 0.000000 -0.036932 0.016930
v 0.000000 -0.036932 -0.016930
v 0.000000 -0.036679 -0.017211
v 0.000000 -0.036021 -0.017330
v 0.003379 0.036021 -0.016994
v 0.003355 0.036679 -0.016882
v 0.003301 0.036932 -0.016607
v 0.003301 0.036932 0.016607
v -0.003379 -0.036021 0.016994
v -0.003355 -0.036679 0.016882
v 0.000000 0.036021 0.017330
v -0.003301 -0.036932 0.016607
v 0.000000 0.036679 0.017211
v -0.003301 -0.036932 -0.016607
v -0.003355 -0.036679 -0.016882
v -0.003379 -0.036021 -0.016994
v 0.000000 0.036021 -0.017330
v 0.000000 0.036679 -0.017211
v 0.000000 0.036932 -0.016930
v 0.000000 0.036932 0.016930
v -0.006629 -0.036021 0.016010
v -0.003379 0.036021 0.016994
v -0.006585 -0.036679 0.015902
v -0.006477 -0.036932 0.015644
v -0.003355 0.036679 0.016882
v -0.003301 0.036932 0.016607
v -0.006477 -0.036932 -0.015644
v -0.006585 -0.036679 -0.015902
v -0.006629 -0.036021 -0.016010
v -0.003379 0.036021 -0.016994
v -0.003355 0.036679 -0.016882
v -0.003301 0.036932 -0.016607
v -0.009625 -0.036021 0.014409
v -0.006629 0.036021 0.016010
v -0.009561 -0.036679 0.014311
v -0.009405 -0.036932 0.014080
v -0.006477 0.036932 0.015644
v -0.006585 0.036679 0.015902
v -0.009405 -0.036932 -0.014080
v -0.009561 -0.036679 -0.014310
v -0.009625 -0.036021 -0.014409
v -0.006629 0.036021 -0.016010
v -0.006585 0.036679 -0.015902
v -0.006477 0.036932 -0.015644
v -0.012251 -0.036021 0.012251
v -0.012170 -0.036679 0.012170
v -0.009625 0.036021 0.014409
v -0.011973 -0.036932 0.011973
v -0.009405 0.036932 0.014080
v -0.009561 0.036679 0.014310
v -0.011973 -0.036932 -0.011973
v -0.012170 -0.036679 -0.012170
v -0.012251 -0.036021 -0.012251
v -0.009625 0.036021 -0.014409
v -0.009561 0.036679 -0.014311
v -0.009405 0.036932 -0.014080
v -0.014409 -0.036021 0.009625
v -0.012251 0.036021 0.012251
v -0.014310 -0.036679 0.009561
v -0.012170 0.036679 0.012170
v -0.014080 -0.036932 0.009405
v -0.011973 0.036932 0.011973
v -0.014080 -0.036932 -0.009405
v -0.014310 -0.036679 -0.009561
v -0.014409 -0.036021 -0.009625
v -0.012251 0.036021 -0.012251
v -0.012170 0.036679 -0.012170
v -0.011973 0.036932 -0.011973
v -0.016010 -0.036021 0.006629
v -0.015902 -0.036679 0.006585
v -0.014409 0.036021 0.009625
v -0.014310 0.036679 0.009561
v -0.015644 -0.036932 0.006477
v -0.014080 0.036932 0.009405
v -0.015644 -0.036932 -0.006477
v -0.015902 -0.036679 -0.006585
v -0.016010 -0.036021 -0.006629
v -0.014409 0.036021 -0.009625
v -0.014310 0.036679 -0.009561
v -0.014080 0.036932 -0.009405
v -0.016994 -0.036021 0.003379
v -0.016882 -0.036679 0.003355
v -0.016010 0.036021 0.006629
v -0.015902 0.036679 0.006585
v -0.016607 -0.036932 0.003301
v -0.015644 0.036932 0.006477
v -0.016607 -0.036932 -0.003301
v -0.016882 -0.036679 -0.003355
v -0.016994 -0.036021 -0.003379
v -0.016010 0.036021 -0.006629
v -0.015902 0.036679 -0.006585
v -0.015644 0.036932 -0.006477
v -0.017330 -0.036021 0.000000
v -0.016994 0.036021 0.003379
v -0.017211 -0.036679 0.000000
v -0.016882 0.036679 0.003355
v -0.016930 -0.036932 0.000000
v -0.016607 0.036932 0.003301
v -0.016994 0.036021 -0.003379
v -0.016882 0.036679 -0.003355
v -0.016607 0.036932 -0.003301
v -0.017330 0.036021 -0.000000
v -0.017211 0.036679 -0.000000
v -0.016930 0.036932 -0.000000
vn 0.9806 -0.1703 0.0975
vn 0.9796 -0.1767 0.0961
vn 0.9796 -0.1767 -0.0961
vn 0.9806 -0.1703 -0.0975
vn 0.9951 -0.0000 -0.0989
vn 0.9951 -0.0000 0.0989
vn 0.9431 -0.1707 0.2855
vn 0.9571 -0.0000 0.2897
vn 0.6438 -0.7398 0.1954
vn 0.6433 -0.7403 0.1952
vn 0.6690 -0.7404 0.0656
vn 0.9422 -0.1746 0.2860
vn 0.6670 -0.7422 0.0651
vn 0.6670 -0.7422 -0.0651
vn 0.6690 -0.7404 -0.0656
vn 0.6433 -0.7403 -0.1952
vn 0.6438 -0.7398 -0.1954
vn 0.9422 -0.1746 -0.2860
vn 0.9431 -0.1707 -0.2855
vn 0.9571 -0.0000 -0.2897
vn 0.9806 0.1703 -0.0975
vn 0.9796 0.1767 -0.0961
vn 0.9796 0.1767 0.0961
vn 0.9806 0.1703 0.0975
vn 0.8684 -0.1743 0.4642
vn 0.8819 -0.0000 0.4714
vn 0.9431 0.1707 0.2855
vn 0.5948 -0.7383 0.3181
vn 0.5931 -0.7402 0.3168
vn 0.8682 -0.1753 0.4643
vn -0.0000 -1.0000 -0.0000
vn 0.5931 -0.7402 -0.3168
vn 0.5948 -0.7383 -0.3181
vn 0.8682 -0.1753 -0.4643
vn 0.8684 -0.1743 -0.4642
vn 0.8819 -0.0000 -0.4714
vn 0.9431 0.1707 -0.2855
vn 0.6438 0.7398 -0.1954
vn 0.6433 0.7403 -0.1952
vn 0.6690 0.7404 -0.0656
vn 0.9422 0.1746 -0.2860
vn 0.6670 0.7422 -0.0651
vn 0.6670 0.7422 0.0651
vn 0.6690 0.7404 0.0656
vn 0.6433 0.7403 0.1952
vn 0.6438 0.7398 0.1954
vn 0.9422 0.1746 0.2860
vn 0.7612 -0.1716 0.6255
vn 0.7611 -0.1750 0.6245
vn 0.7726 -0.0000 0.6349
vn 0.8684 0.1743 0.4642
vn 0.5215 -0.7382 0.4279
vn 0.5211 -0.7387 0.4275
vn 0.5211 -0.7387 -0.4275
vn 0.5215 -0.7382 -0.4279
vn 0.7611 -0.1750 -0.6245
vn 0.7612 -0.1716 -0.6255
vn 0.7726 -0.0000 -0.6349
vn 0.8684 0.1743 -0.4642
vn 0.5948 0.7383 -0.3181
vn 0.5931 0.7402 -0.3168
vn 0.8682 0.1753 -0.4643
vn -0.0000 1.0000 -0.0000
vn 0.5931 0.7402 0.3168
vn 0.5948 0.7383 0.3181
vn 0.8682 0.1753 0.4643
vn 0.6255 -0.1716 0.7612
vn 0.6349 -0.0000 0.7726
vn 0.4279 -0.7382 0.5215
vn 0.6245 -0.1750 0.7611
vn 0.7611 0.1750 0.6245
vn 0.7612 0.1716 0.6255
vn 0.4275 -0.7387 0.5212
vn 0.4275 -0.7387 -0.5212
vn 0.4279 -0.7382 -0.5215
vn 0.6245 -0.1750 -0.7611
vn 0.6255 -0.1716 -0.7612
vn 0.6349 -0.0000 -0.7726
vn 0.7612 0.1716 -0.6255
vn 0.7611 0.1750 -0.6245
vn 0.5215 0.7382 -0.4279
vn 0.5211 0.7387 -0.4275
vn 0.5211 0.7387 0.4275
vn 0.5215 0.7382 0.4279
vn 0.4642 -0.1743 0.8684
vn 0.4643 -0.1753 0.8682
vn 0.4714 -0.0000 0.8819
vn 0.6255 0.1716 0.7612
vn 0.3181 -0.7383 0.5948
vn 0.4279 0.7382 0.5215
vn 0.6245 0.1750 0.7611
vn 0.3168 -0.7402 0.5931
vn 0.3168 -0.7402 -0.5931
vn 0.3181 -0.7383 -0.5948
vn 0.4643 -0.1753 -0.8682
vn 0.4642 -0.1743 -0.8684
vn 0.4714 -0.0000 -0.8819
vn 0.6255 0.1716 -0.7612
vn 0.4279 0.7382 -0.5215
vn 0.6245 0.1750 -0.7611
vn 0.4275 0.7387 -0.5212
vn 0.4275 0.7387 0.5212
vn 0.2855 -0.1707 0.9431
vn 0.2860 -0.1746 0.9422
vn 0.2897 -0.0000 0.9571
vn 0.1954 -0.7398 0.6438
vn 0.4643 0.1753 0.8682
vn 0.4642 0.1743 0.8684
vn 0.3181 0.7383 0.5948
vn 0.1952 -0.7403 0.6433
vn 0.1952 -0.7403 -0.6433
vn 0.1954 -0.7398 -0.6438
vn 0.2860 -0.1746 -0.9422
vn 0.2855 -0.1707 -0.9431
vn 0.2897 -0.0000 -0.9571
vn 0.4642 0.1743 -0.8684
vn 0.4643 0.1753 -0.8682
vn 0.3181 0.7383 -0.5948
vn 0.3168 0.7402 -0.5931
vn 0.3168 0.7402 0.5931
vn 0.0975 -0.1703 0.9806
vn 0.0989 -0.0000 0.9951
vn 0.0656 -0.7404 0.6690
vn 0.0961 -0.1767 0.9796
vn 0.2860 0.1746 0.9422
vn 0.2855 0.1707 0.9431
vn 0.1954 0.7398 0.6438
vn 0.0651 -0.7422 0.6670
vn 0.0651 -0.7422 -0.6670
vn 0.0656 -0.7404 -0.6690
vn 0.0961 -0.1767 -0.9796
vn 0.0975 -0.1703 -0.9806
vn 0.0989 -0.0000 -0.9951
vn 0.2855 0.1707 -0.9431
vn 0.2860 0.1746 -0.9422
vn 0.1954 0.7398 -0.6438
vn 0.1952 0.7403 -0.6433
vn 0.1952 0.7403 0.6433
vn -0.0975 -0.1703 0.9806
vn -0.0961 -0.1767 0.9796
vn -0.0989 -0.0000 0.9951
vn 0.0975 0.1703 0.9806
vn -0.0656 -0.7404 0.6690
vn -0.0651 -0.7422 0.6670
vn 0.0656 0.7404 0.6690
vn 0.0961 0.1767 0.9796
vn -0.0651 -0.7422 -0.6670
vn -0.0656 -0.7404 -0.6690
vn -0.0961 -0.1767 -0.9796
vn -0.0975 -0.1703 -0.9806
vn -0.0989 -0.0000 -0.9951
vn 0.0975 0.1703 -0.9806
vn 0.0656 0.7404 -0.6690
vn 0.0961 0.1767 -0.9796
vn 0.0651 0.7422 -0.6670
vn 0.0651 0.7422 0.6670
vn -0.2855 -0.1707 0.9431
vn -0.2897 -0.0000 0.9571
vn -0.1954 -0.7398 0.6438
vn -0.1952 -0.7403 0.6433
vn -0.2860 -0.1746 0.9422
vn -0.0961 0.1767 0.9796
vn -0.0975 0.1703 0.9806
vn -0.0651 0.7422 0.6670
vn -0.0656 0.7404 0.6690
vn -0.1952 -0.7403 -0.6433
vn -0.1954 -0.7398 -0.6438
vn -0.2860 -0.1746 -0.9422
vn -0.2855 -0.1707 -0.9431
vn -0.2897 -0.0000 -0.9571
vn -0.0975 0.1703 -0.9806
vn -0.0961 0.1767 -0.9796
vn -0.0656 0.7404 -0.6690
vn -0.0651 0.7422 -0.6670
vn -0.4642 -0.1743 0.8684
vn -0.4714 -0.0000 0.8819
vn -0.2855 0.1707 0.9431
vn -0.3181 -0.7383 0.5948
vn -0.3168 -0.7402 0.5931
vn -0.4643 -0.1753 0.8682
vn -0.1952 0.7403 0.6433
vn -0.1954 0.7398 0.6438
vn -0.2860 0.1746 0.9422
vn -0.3168 -0.7402 -0.5931
vn -0.3181 -0.7383 -0.5948
vn -0.4643 -0.1753 -0.8682
vn -0.4642 -0.1743 -0.8684
vn -0.4714 -0.0000 -0.8819
vn -0.2855 0.1707 -0.9431
vn -0.1954 0.7398 -0.6438
vn -0.1952 0.7403 -0.6433
vn -0.2860 0.1746 -0.9422
vn -0.6255 -0.1716 0.7612
vn -0.6245 -0.1750 0.7611
vn -0.6349 -0.0000 0.7726
vn -0.4642 0.1743 0.8684
vn -0.4279 -0.7382 0.5215
vn -0.4275 -0.7387 0.5212
vn -0.3168 0.7402 0.5931
vn -0.3181 0.7383 0.5948
vn -0.4643 0.1753 0.8682
vn -0.4275 -0.7387 -0.5212
vn -0.4279 -0.7382 -0.5215
vn -0.6245 -0.1750 -0.7611
vn -0.6255 -0.1716 -0.7612
vn -0.6349 -0.0000 -0.7726
vn -0.4642 0.1743 -0.8684
vn -0.3181 0.7383 -0.5948
vn -0.3168 0.7402 -0.5931
vn -0.4643 0.1753 -0.8682
vn -0.7612 -0.1716 0.6255
vn -0.7726 -0.0000 0.6349
vn -0.5215 -0.7382 0.4279
vn -0.7611 -0.1750 0.6245
vn -0.6245 0.1750 0.7611
vn -0.6255 0.1716 0.7612
vn -0.5211 -0.7387 0.4275
vn -0.4275 0.7387 0.5212
vn -0.4279 0.7382 0.5215
vn -0.5211 -0.7387 -0.4275
vn -0.5215 -0.7382 -0.4279
vn -0.7611 -0.1750 -0.6245
vn -0.7612 -0.1716 -0.6255
vn -0.7726 -0.0000 -0.6349
vn -0.6255 0.1716 -0.7612
vn -0.6245 0.1750 -0.7611
vn -0.4279 0.7382 -0.5215
vn -0.4275 0.7387 -0.5212
vn -0.8684 -0.1743 0.4642
vn -0.8682 -0.1753 0.4643
vn -0.8819 -0.0000 0.4714
vn -0.7612 0.1716 0.6255
vn -0.5948 -0.7383 0.3181
vn -0.5215 0.7382 0.4279
vn -0.7611 0.1750 0.6245
vn -0.5931 -0.7402 0.3168
vn -0.5211 0.7387 0.4275
vn -0.5931 -0.7402 -0.3168
vn -0.5948 -0.7383 -0.3181
vn -0.8682 -0.1753 -0.4643
vn -0.8684 -0.1743 -0.4642
vn -0.8819 -0.0000 -0.4714
vn -0.7612 0.1716 -0.6255
vn -0.5215 0.7382 -0.4279
vn -0.7611 0.1750 -0.6245
vn -0.5211 0.7387 -0.4275
vn -0.9431 -0.1707 0.2855
vn -0.9422 -0.1746 0.2860
vn -0.9571 -0.0000 0.2897
vn -0.6438 -0.7398 0.1954
vn -0.8682 0.1753 0.4643
vn -0.8684 0.1743 0.4642
vn -0.5948 0.7383 0.3181
vn -0.6433 -0.7403 0.1952
vn -0.5931 0.7402 0.3168
vn -0.6433 -0.7403 -0.1952
vn -0.6438 -0.7398 -0.1954
vn -0.9422 -0.1746 -0.2860
vn -0.9431 -0.1707 -0.2855
vn -0.9571 -0.0000 -0.2897
vn -0.8684 0.1743 -0.4642
vn -0.8682 0.1753 -0.4643
vn -0.5948 0.7383 -0.3181
vn -0.5931 0.7402 -0.3168
vn -0.9806 -0.1703 0.0975
vn -0.9951 -0.0000 0.0989
vn -0.6690 -0.7404 0.0656
vn -0.9796 -0.1767 0.0961
vn -0.9422 0.1746 0.2860
vn -0.9431 0.1707 0.2855
vn -0.6438 0.7398 0.1954
vn -0.6670 -0.7422 0.0651
vn -0.6433 0.7403 0.1952
vn -0.6670 -0.7422 -0.0651
vn -0.6690 -0.7404 -0.0656
vn -0.9796 -0.1767 -0.0961
vn -0.9806 -0.1703 -0.0975
vn -0.9951 -0.0000 -0.0989
vn -0.9431 0.1707 -0.2855
vn -0.9422 0.1746 -0.2860
vn -0.6438 0.7398 -0.1954
vn -0.6433 0.7403 -0.1952
vn -0.9806 0.1703 0.0975
vn -0.6690 0.7404 0.0656
vn -0.9796 0.1767 0.0961
vn -0.6670 0.7422 0.0651
vn -0.9806 0.1703 -0.0975
vn -0.6690 0.7404 -0.0656
vn -0.9796 0.1767 -0.0961
vn -0.6670 0.7422 -0.0651
s 0
usemtl random_material.012
f 1//1 2//1 3//1
f 1//2 3//2 4//2
f 1//3 4//3 5//3
f 1//4 5//4 6//4
f 1//5 6//5 18//5
f 1//5 18//5 7//5
f 1//6 7//6 9//6
f 1//6 9//6 2//6
f 2//7 8//7 3//7
f 2//8 9//8 23//8
f 2//8 23//8 8//8
f 3//9 10//9 11//9
f 3//10 11//10 12//10
f 3//11 12//11 4//11
f 3//12 8//12 10//12
f 4//13 12//13 13//13
f 4//14 13//14 14//14
f 4//15 14//15 5//15
f 5//16 14//16 15//16
f 5//17 15//17 16//17
f 5//18 16//18 17//18
f 5//19 17//19 6//19
f 6//20 17//20 29//20
f 6//20 29//20 18//20
f 7//21 18//21 19//21
f 7//22 19//22 20//22
f 7//23 20//23 21//23
f 7//24 21//24 9//24
f 8//25 22//25 10//25
f 8//26 23//26 39//26
f 8//26 39//26 22//26
f 9//27 21//27 23//27
f 10//28 24//28 25//28
f 10//29 25//29 11//29
f 10//30 22//30 24//30
f 11//31 25//31 40//31
f 11//31 40//31 53//31
f 11//31 53//31 65//31
f 11//31 65//31 77//31
f 11//31 77//31 89//31
f 11//31 89//31 100//31
f 11//31 100//31 112//31
f 11//31 112//31 124//31
f 11//31 124//31 136//31
f 11//31 136//31 149//31
f 11//31 149//31 161//31
f 11//31 161//31 173//31
f 11//31 173//31 185//31
f 11//31 185//31 175//31
f 11//31 175//31 163//31
f 11//31 163//31 151//31
f 11//31 151//31 139//31
f 11//31 139//31 127//31
f 11//31 127//31 115//31
f 11//31 115//31 102//31
f 11//31 102//31 90//31
f 11//31 90//31 78//31
f 11//31 78//31 66//31
f 11//31 66//31 54//31
f 11//31 54//31 41//31
f 11//31 41//31 26//31
f 11//31 26//31 15//31
f 11//31 15//31 14//31
f 11//31 14//31 13//31
f 11//31 13//31 12//31
f 15//32 26//32 16//32
f 16//33 26//33 27//33
f 16//34 27//34 28//34
f 16//35 28//35 17//35
f 17//36 28//36 44//36
f 17//36 44//36 29//36
f 18//37 29//37 19//37
f 19//38 30//38 31//38
f 19//39 31//39 32//39
f 19//40 32//40 20//40
f 19//41 29//41 30//41
f 20//42 32//42 33//42
f 20//43 33//43 34//43
f 20//44 34//44 21//44
f 21//45 34//45 35//45
f 21//46 35//46 36//46
f 21//47 36//47 23//47
f 22//48 37//48 38//48
f 22//49 38//49 24//49
f 22//50 39//50 50//50
f 22//50 50//50 37//50
f 23//51 36//51 39//51
f 24//52 38//52 40//52
f 24//53 40//53 25//53
f 26//54 41//54 27//54
f 27//55 41//55 42//55
f 27//56 42//56 28//56
f 28//57 42//57 43//57
f 28//58 43//58 57//58
f 28//58 57//58 44//58
f 29//59 44//59 30//59
f 30//60 45//60 46//60
f 30//61 46//61 31//61
f 30//62 44//62 45//62
f 31//63 46//63 59//63
f 31//63 59//63 71//63
f 31//63 71//63 83//63
f 31//63 83//63 95//63
f 31//63 95//63 107//63
f 31//63 107//63 120//63
f 31//63 120//63 132//63
f 31//63 132//63 144//63
f 31//63 144//63 156//63
f 31//63 156//63 168//63
f 31//63 168//63 180//63
f 31//63 180//63 189//63
f 31//63 189//63 192//63
f 31//63 192//63 186//63
f 31//63 186//63 174//63
f 31//63 174//63 162//63
f 31//63 162//63 150//63
f 31//63 150//63 137//63
f 31//63 137//63 125//63
f 31//63 125//63 114//63
f 31//63 114//63 108//63
f 31//63 108//63 96//63
f 31//63 96//63 84//63
f 31//63 84//63 72//63
f 31//63 72//63 60//63
f 31//63 60//63 47//63
f 31//63 47//63 35//63
f 31//63 35//63 34//63
f 31//63 34//63 33//63
f 31//63 33//63 32//63
f 35//64 47//64 36//64
f 36//65 47//65 48//65
f 36//66 48//66 39//66
f 37//67 49//67 38//67
f 37//68 50//68 63//68
f 37//68 63//68 49//68
f 38//69 51//69 40//69
f 38//70 49//70 51//70
f 39//71 48//71 52//71
f 39//72 52//72 50//72
f 40//73 51//73 53//73
f 41//74 54//74 55//74
f 41//75 55//75 42//75
f 42//76 55//76 56//76
f 42//77 56//77 43//77
f 43//78 56//78 69//78
f 43//78 69//78 57//78
f 44//79 57//79 58//79
f 44//80 58//80 45//80
f 45//81 58//81 59//81
f 45//82 59//82 46//82
f 47//83 60//83 48//83
f 48//84 60//84 52//84
f 49//85 61//85 62//85
f 49//86 62//86 51//86
f 49//87 63//87 75//87
f 49//87 75//87 61//87
f 50//88 52//88 63//88
f 51//89 62//89 53//89
f 52//90 60//90 64//90
f 52//91 64//91 63//91
f 53//92 62//92 65//92
f 54//93 66//93 67//93
f 54//94 67//94 55//94
f 55//95 67//95 56//95
f 56//96 67//96 68//96
f 56//97 68//97 81//97
f 56//97 81//97 69//97
f 57//98 69//98 58//98
f 58//99 70//99 59//99
f 58//100 69//100 70//100
f 59//101 70//101 71//101
f 60//102 72//102 64//102
f 61//103 73//103 74//103
f 61//104 74//104 62//104
f 61//105 75//105 86//105
f 61//105 86//105 73//105
f 62//106 74//106 65//106
f 63//107 64//107 76//107
f 63//108 76//108 75//108
f 64//109 72//109 76//109
f 65//110 74//110 77//110
f 66//111 78//111 79//111
f 66//112 79//112 67//112
f 67//113 79//113 68//113
f 68//114 79//114 80//114
f 68//115 80//115 93//115
f 68//115 93//115 81//115
f 69//116 81//116 82//116
f 69//117 82//117 70//117
f 70//118 82//118 71//118
f 71//119 82//119 83//119
f 72//120 84//120 76//120
f 73//121 85//121 74//121
f 73//122 86//122 99//122
f 73//122 99//122 85//122
f 74//123 87//123 77//123
f 74//124 85//124 87//124
f 75//125 76//125 88//125
f 75//126 88//126 86//126
f 76//127 84//127 88//127
f 77//128 87//128 89//128
f 78//129 90//129 91//129
f 78//130 91//130 79//130
f 79//131 91//131 92//131
f 79//132 92//132 80//132
f 80//133 92//133 105//133
f 80//133 105//133 93//133
f 81//134 93//134 94//134
f 81//135 94//135 82//135
f 82//136 94//136 83//136
f 83//137 94//137 95//137
f 84//138 96//138 88//138
f 85//139 97//139 98//139
f 85//140 98//140 87//140
f 85//141 99//141 110//141
f 85//141 110//141 97//141
f 86//142 88//142 99//142
f 87//143 98//143 100//143
f 87//144 100//144 89//144
f 88//145 96//145 101//145
f 88//146 101//146 99//146
f 90//147 102//147 91//147
f 91//148 102//148 103//148
f 91//149 103//149 92//149
f 92//150 103//150 104//150
f 92//151 104//151 118//151
f 92//151 118//151 105//151
f 93//152 105//152 94//152
f 94//153 106//153 95//153
f 94//154 105//154 106//154
f 95//155 106//155 107//155
f 96//156 108//156 101//156
f 97//157 109//157 98//157
f 97//158 110//158 122//158
f 97//158 122//158 109//158
f 98//159 111//159 112//159
f 98//160 112//160 100//160
f 98//161 109//161 111//161
f 99//162 101//162 113//162
f 99//163 113//163 110//163
f 101//164 108//164 114//164
f 101//165 114//165 113//165
f 102//166 115//166 103//166
f 103//167 115//167 116//167
f 103//168 116//168 117//168
f 103//169 117//169 104//169
f 104//170 117//170 130//170
f 104//170 130//170 118//170
f 105//171 118//171 119//171
f 105//172 119//172 106//172
f 106//173 119//173 120//173
f 106//174 120//174 107//174
f 109//175 121//175 111//175
f 109//176 122//176 135//176
f 109//176 135//176 121//176
f 110//177 113//177 122//177
f 111//178 123//178 124//178
f 111//179 124//179 112//179
f 111//180 121//180 123//180
f 113//181 114//181 125//181
f 113//182 125//182 126//182
f 113//183 126//183 122//183
f 115//184 127//184 116//184
f 116//185 127//185 128//185
f 116//186 128//186 129//186
f 116//187 129//187 117//187
f 117//188 129//188 142//188
f 117//188 142//188 130//188
f 118//189 130//189 119//189
f 119//190 131//190 132//190
f 119//191 132//191 120//191
f 119//192 130//192 131//192
f 121//193 133//193 134//193
f 121//194 134//194 123//194
f 121//195 135//195 146//195
f 121//195 146//195 133//195
f 122//196 126//196 135//196
f 123//197 134//197 136//197
f 123//198 136//198 124//198
f 125//199 137//199 126//199
f 126//200 137//200 138//200
f 126//201 138//201 135//201
f 127//202 139//202 128//202
f 128//203 139//203 140//203
f 128//204 140//204 129//204
f 129//205 140//205 141//205
f 129//206 141//206 154//206
f 129//206 154//206 142//206
f 130//207 142//207 131//207
f 131//208 143//208 144//208
f 131//209 144//209 132//209
f 131//210 142//210 143//210
f 133//211 145//211 134//211
f 133//212 146//212 159//212
f 133//212 159//212 145//212
f 134//213 147//213 136//213
f 134//214 145//214 147//214
f 135//215 138//215 148//215
f 135//216 148//216 146//216
f 136//217 147//217 149//217
f 137//218 150//218 138//218
f 138//219 150//219 148//219
f 139//220 151//220 152//220
f 139//221 152//221 140//221
f 140//222 152//222 153//222
f 140//223 153//223 141//223
f 141//224 153//224 166//224
f 141//224 166//224 154//224
f 142//225 154//225 155//225
f 142//226 155//226 143//226
f 143//227 155//227 156//227
f 143//228 156//228 144//228
f 145//229 157//229 158//229
f 145//230 158//230 147//230
f 145//231 159//231 171//231
f 145//231 171//231 157//231
f 146//232 148//232 159//232
f 147//233 158//233 149//233
f 148//234 150//234 160//234
f 148//235 160//235 159//235
f 149//236 158//236 161//236
f 150//237 162//237 160//237
f 151//238 163//238 164//238
f 151//239 164//239 152//239
f 152//240 164//240 153//240
f 153//241 164//241 165//241
f 153//242 165//242 178//242
f 153//242 178//242 166//242
f 154//243 166//243 155//243
f 155//244 167//244 156//244
f 155//245 166//245 167//245
f 156//246 167//246 168//246
f 157//247 169//247 170//247
f 157//248 170//248 158//248
f 157//249 171//249 182//249
f 157//249 182//249 169//249
f 158//250 170//250 161//250
f 159//251 160//251 172//251
f 159//252 172//252 171//252
f 160//253 162//253 172//253
f 161//254 170//254 173//254
f 162//255 174//255 172//255
f 163//256 175//256 176//256
f 163//257 176//257 164//257
f 164//258 176//258 165//258
f 165//259 176//259 177//259
f 165//260 177//260 187//260
f 165//260 187//260 178//260
f 166//261 178//261 179//261
f 166//262 179//262 167//262
f 167//263 179//263 168//263
f 168//264 179//264 180//264
f 169//265 181//265 170//265
f 169//266 182//266 190//266
f 169//266 190//266 181//266
f 170//267 183//267 173//267
f 170//268 181//268 183//268
f 171//269 172//269 184//269
f 171//270 184//270 182//270
f 172//271 174//271 184//271
f 173//272 183//272 185//272
f 174//273 186//273 184//273
f 175//274 185//274 183//274
f 175//275 183//275 176//275
f 176//276 183//276 181//276
f 176//277 181//277 177//277
f 177//278 181//278 190//278
f 177//278 190//278 187//278
f 178//279 187//279 188//279
f 178//280 188//280 179//280
f 179//281 188//281 180//281
f 180//282 188//282 189//282
f 182//283 184//283 190//283
f 184//284 186//284 191//284
f 184//285 191//285 190//285
f 186//286 192//286 191//286
f 187//287 190//287 188//287
f 188//288 191//288 189//288
f 188//289 190//289 191//289
f 189//290 191//290 192//290
