# Blender 4.4.0
# www.blender.org
mtllib Untitled.mtl
o UCX_Object_8_0
v 0.007863 -0.030238 0.007081
v 0.007044 0.001669 0.015414
v 0.007112 -0.023650 0.010175
v 0.000374 -0.030238 0.010128
v 0.006714 -0.030238 0.003084
v 0.006738 0.041670 0.001074
v 0.006784 0.041670 0.001341
v 0.007282 0.041670 0.008228
v 0.007002 0.025410 0.012193
v 0.000000 0.030373 0.012561
v 0.000000 0.001732 0.015787
v 0.000000 0.001662 0.015777
v 0.000000 -0.023586 0.011786
v 0.000000 -0.030055 0.010282
v 0.000000 -0.030238 0.010237
v 0.000000 -0.030238 0.001905
v 0.005791 -0.023854 0.002584
v -0.006737 0.041670 0.001074
v 0.005722 0.032604 0.001113
v 0.000000 0.001662 0.001003
v 0.000000 0.024594 0.000664
v 0.006791 0.041670 0.009365
v -0.007002 0.025410 0.012193
v -0.007042 0.001669 0.015414
v -0.006790 0.041670 0.009365
v -0.007044 0.001662 0.015414
v -0.007112 -0.023650 0.010175
v -0.000373 -0.030238 0.010128
v -0.006714 -0.030238 0.003084
v -0.005789 -0.023854 0.002584
v 0.000000 0.001507 0.001006
v 0.000037 0.001662 0.001007
v -0.006785 0.041670 0.001363
v -0.005718 0.032604 0.001113
v -0.007863 -0.030238 0.007083
v -0.007281 0.041670 0.008228
vn 0.9179 -0.0780 0.3891
vn 0.3508 -0.3650 0.8624
vn -0.0000 -1.0000 -0.0000
vn 0.9611 -0.0080 -0.2761
vn 0.9853 0.0012 -0.1708
vn 0.9973 0.0092 -0.0722
vn 0.9974 0.0069 0.0716
vn 0.1460 0.1333 0.9803
vn 0.0536 0.1118 0.9923
vn 0.0510 -0.1459 0.9880
vn 0.0509 -0.1559 0.9865
vn 0.2149 -0.1973 0.9565
vn 0.9846 0.0252 0.1728
vn 0.2135 -0.2212 0.9516
vn 0.2213 -0.2299 0.9477
vn 0.2697 -0.2825 0.9206
vn 0.1728 -0.0521 -0.9836
vn 0.3283 -0.0265 -0.9442
vn -0.0000 1.0000 -0.0000
vn -0.0003 1.0000 -0.0000
vn 0.1890 -0.0254 -0.9816
vn 0.1063 -0.0161 -0.9942
vn 0.0978 -0.0147 -0.9951
vn -0.0000 0.0240 -0.9997
vn 0.9150 0.0806 0.3952
vn 0.1722 0.1709 0.9701
vn -0.1460 0.1332 0.9803
vn -0.0536 0.1118 0.9923
vn -0.0000 0.2722 0.9622
vn -0.1722 0.1709 0.9701
vn -0.0530 0.0114 0.9985
vn -0.0509 -0.1459 0.9880
vn -0.0508 -0.1559 0.9865
vn -0.2135 -0.2212 0.9516
vn -0.2149 -0.1974 0.9565
vn -0.2213 -0.2299 0.9477
vn -0.2707 -0.2835 0.9200
vn -0.1728 -0.0520 -0.9836
vn -0.1469 -0.0280 -0.9888
vn 0.1469 -0.0280 -0.9888
vn 0.1519 -0.0268 -0.9880
vn 0.1573 -0.0255 -0.9872
vn -0.0978 -0.0147 -0.9951
vn -0.1069 -0.0162 -0.9941
vn -0.1885 -0.0254 -0.9818
vn -0.3278 -0.0265 -0.9444
vn -0.9611 -0.0080 -0.2760
vn -0.9866 0.0018 -0.1631
vn 0.1193 -0.0185 -0.9927
vn 0.1193 -0.0190 -0.9927
vn -0.1217 -0.0190 -0.9924
vn -0.5264 0.1152 0.8424
vn -0.9150 0.0807 0.3952
vn -0.9848 0.0250 0.1719
vn -0.9974 0.0069 0.0715
vn -0.9177 -0.0781 0.3894
vn -0.3506 -0.3649 0.8625
vn -0.1572 -0.0255 -0.9872
vn -0.9974 0.0092 -0.0720
s 0
usemtl random_material.003
f 1//1 2//1 3//1
f 1//2 3//2 4//2
f 1//3 4//3 15//3
f 1//3 15//3 28//3
f 1//3 28//3 35//3
f 1//3 35//3 29//3
f 1//3 29//3 16//3
f 1//3 16//3 5//3
f 1//4 5//4 6//4
f 1//5 6//5 7//5
f 1//6 7//6 8//6
f 1//7 8//7 2//7
f 2//8 9//8 10//8
f 2//9 10//9 11//9
f 2//10 11//10 12//10
f 2//11 12//11 13//11
f 2//12 13//12 3//12
f 2//13 8//13 9//13
f 3//14 13//14 14//14
f 3//15 14//15 15//15
f 3//16 15//16 4//16
f 5//17 16//17 17//17
f 5//18 17//18 6//18
f 6//19 18//19 33//19
f 6//19 33//19 36//19
f 6//19 36//19 25//19
f 6//19 25//19 22//19
f 6//19 22//19 8//19
f 6//20 8//20 7//20
f 6//21 17//21 19//21
f 6//22 19//22 20//22
f 6//23 20//23 21//23
f 6//24 21//24 18//24
f 8//25 22//25 9//25
f 9//26 22//26 10//26
f 10//27 23//27 24//27
f 10//28 24//28 11//28
f 10//29 22//29 25//29
f 10//30 25//30 23//30
f 11//31 24//31 26//31
f 11//32 26//32 12//32
f 12//33 26//33 13//33
f 13//34 27//34 14//34
f 13//35 26//35 27//35
f 14//36 27//36 15//36
f 15//37 27//37 28//37
f 16//38 29//38 30//38
f 16//39 30//39 31//39
f 16//40 31//40 17//40
f 17//41 31//41 32//41
f 17//42 32//42 19//42
f 18//43 21//43 20//43
f 18//44 20//44 34//44
f 18//45 34//45 30//45
f 18//46 30//46 29//46
f 18//47 29//47 35//47
f 18//48 35//48 33//48
f 19//49 32//49 20//49
f 20//50 32//50 31//50
f 20//51 31//51 34//51
f 23//52 26//52 24//52
f 23//53 25//53 36//53
f 23//54 36//54 26//54
f 26//55 36//55 35//55
f 26//56 35//56 27//56
f 27//57 35//57 28//57
f 30//58 34//58 31//58
f 33//59 35//59 36//59
o UCX_Object_8_1
v -0.024627 -0.056891 0.005316
v -0.024006 -0.056891 0.001830
v -0.024258 -0.057354 0.001879
v -0.024770 -0.057459 0.005320
v -0.019674 -0.057286 0.006207
v -0.019398 -0.056891 0.006218
v -0.012435 -0.056891 0.000272
v -0.000005 -0.056891 -0.001400
v -0.000005 -0.066059 -0.001040
v -0.015921 -0.071865 0.001797
v -0.023458 -0.065263 0.002864
v -0.022547 -0.065534 0.005769
v -0.018770 -0.065156 0.006286
v -0.014004 -0.070607 0.006415
v -0.000005 -0.072255 0.005029
v -0.000005 -0.056893 0.000227
v -0.001528 -0.056891 0.000529
v -0.000005 -0.070874 -0.000337
v -0.000005 -0.075669 0.002025
v -0.000005 -0.076105 0.004866
v -0.016183 -0.072294 0.005365
vn -0.8742 0.4600 -0.1557
vn -0.9611 0.2408 -0.1355
vn -0.1729 0.0515 0.9836
vn -0.1693 0.0918 0.9813
vn -0.0000 1.0000 -0.0000
vn -0.1334 -0.0321 -0.9905
vn -0.1333 -0.0354 -0.9905
vn -0.1332 -0.0389 -0.9903
vn -0.1470 -0.0788 -0.9860
vn -0.2623 -0.1453 -0.9540
vn -0.9817 -0.1179 -0.1495
vn -0.9321 -0.2416 0.2699
vn -0.1717 0.0074 0.9851
vn -0.1351 -0.0056 0.9908
vn -0.0456 0.0048 0.9989
vn -0.0194 0.0068 0.9998
vn 0.1049 0.0555 0.9929
vn 0.2828 0.2862 0.9155
vn 0.0033 0.9999 0.0104
vn 1.0000 -0.0000 -0.0000
vn 0.0015 1.0000 0.0012
vn -0.1227 -0.1434 -0.9820
vn -0.0923 -0.4400 -0.8932
vn -0.2279 -0.9624 -0.1478
vn -0.2311 -0.9638 -0.1328
vn -0.6636 -0.7354 -0.1370
vn -0.7139 -0.6816 0.1604
vn -0.2347 -0.2765 0.9319
vn -0.1266 -0.0872 0.9881
vn -0.0788 -0.4512 0.8889
vn 0.0936 -0.0421 0.9947
s 0
usemtl random_material.004
f 37//60 38//60 39//60
f 37//61 39//61 40//61
f 37//62 40//62 41//62
f 37//63 41//63 42//63
f 37//64 42//64 53//64
f 37//64 53//64 44//64
f 37//64 44//64 43//64
f 37//64 43//64 38//64
f 38//65 43//65 39//65
f 39//66 43//66 44//66
f 39//67 44//67 45//67
f 39//68 45//68 46//68
f 39//69 46//69 47//69
f 39//70 47//70 40//70
f 40//71 47//71 48//71
f 40//72 48//72 41//72
f 41//73 48//73 49//73
f 41//74 49//74 42//74
f 42//75 49//75 50//75
f 42//76 50//76 51//76
f 42//77 51//77 52//77
f 42//78 52//78 53//78
f 44//79 52//79 51//79
f 44//79 51//79 56//79
f 44//79 56//79 55//79
f 44//79 55//79 54//79
f 44//79 54//79 45//79
f 44//80 53//80 52//80
f 45//81 54//81 46//81
f 46//82 54//82 55//82
f 46//83 55//83 56//83
f 46//84 56//84 57//84
f 46//85 57//85 47//85
f 47//86 57//86 48//86
f 48//87 57//87 50//87
f 48//88 50//88 49//88
f 50//89 57//89 56//89
f 50//90 56//90 51//90
o UCX_Object_8_2
v -0.000003 -0.056891 -0.001400
v -0.000003 -0.056893 0.000227
v 0.000002 -0.056891 0.000226
v 0.000002 -0.056891 -0.001401
v 0.000002 -0.066061 -0.001041
v -0.000003 -0.066059 -0.001040
v -0.000003 -0.072256 0.005029
v 0.019400 -0.056891 0.006217
v 0.012435 -0.056891 0.000273
v 0.024258 -0.057354 0.001881
v 0.000002 -0.070877 -0.000338
v 0.015872 -0.071844 0.001841
v -0.000003 -0.070875 -0.000337
v -0.000003 -0.076106 0.004866
v 0.014004 -0.070608 0.006415
v 0.018770 -0.065156 0.006286
v 0.019677 -0.057286 0.006207
v 0.024629 -0.056891 0.005316
v 0.024006 -0.056891 0.001832
v 0.024772 -0.057459 0.005321
v 0.023428 -0.065260 0.002883
v 0.000002 -0.075670 0.002024
v -0.000003 -0.075668 0.002024
v 0.016163 -0.072284 0.005352
v 0.000002 -0.076108 0.004866
v 0.022541 -0.065533 0.005762
vn -0.3644 0.9312 0.0011
vn -0.0000 1.0000 -0.0000
vn 0.0004 1.0000 -0.0000
vn -0.1547 -0.0388 -0.9872
vn -0.1695 -0.0387 -0.9848
vn -1.0000 -0.0000 -0.0000
vn -0.2827 0.2862 0.9155
vn -0.1942 0.7513 0.6307
vn 0.1333 -0.0353 -0.9904
vn 0.1333 -0.0389 -0.9903
vn -0.2056 -0.1414 -0.9684
vn -0.2072 -0.1413 -0.9680
vn 0.1486 -0.0833 -0.9854
vn 0.1260 -0.1433 -0.9816
vn -0.0935 -0.0421 0.9947
vn -0.1048 0.0556 0.9929
vn 0.0190 0.0070 0.9998
vn 0.0433 0.0051 0.9991
vn 0.1691 0.0936 0.9811
vn 0.1335 -0.0321 -0.9905
vn 0.9610 0.2408 -0.1362
vn 0.9811 -0.1220 -0.1504
vn 0.2606 -0.1482 -0.9540
vn 0.8741 0.4599 -0.1564
vn -0.1693 -0.4356 -0.8841
vn -0.2921 -0.4226 -0.8579
vn 0.0958 -0.4400 -0.8929
vn 0.6612 -0.7357 -0.1471
vn 0.2320 -0.9626 -0.1399
vn 0.2302 -0.9618 -0.1484
vn -0.3619 -0.9213 -0.1421
vn -0.3602 -0.9220 -0.1422
vn -0.0543 -0.1393 0.9888
vn 0.2388 -0.2821 0.9292
vn 0.1284 -0.0889 0.9877
vn 0.0815 -0.4570 0.8857
vn 0.1371 -0.0058 0.9905
vn 0.1715 0.0065 0.9852
vn 0.1728 0.0528 0.9835
vn 0.9331 -0.2434 0.2646
vn 0.7134 -0.6834 0.1552
s 0
usemtl random_material.005
f 58//91 59//91 60//91
f 58//92 60//92 65//92
f 58//92 65//92 75//92
f 58//92 75//92 76//92
f 58//93 76//93 66//93
f 58//92 66//92 61//92
f 58//94 61//94 62//94
f 58//95 62//95 63//95
f 58//96 63//96 70//96
f 58//96 70//96 80//96
f 58//96 80//96 71//96
f 58//96 71//96 64//96
f 58//96 64//96 59//96
f 59//97 64//97 65//97
f 59//98 65//98 60//98
f 61//99 66//99 67//99
f 61//100 67//100 62//100
f 62//101 68//101 70//101
f 62//102 70//102 63//102
f 62//103 67//103 69//103
f 62//104 69//104 68//104
f 64//105 71//105 72//105
f 64//106 72//106 65//106
f 65//107 72//107 73//107
f 65//108 73//108 74//108
f 65//109 74//109 75//109
f 66//110 76//110 67//110
f 67//111 75//111 77//111
f 67//112 77//112 78//112
f 67//113 78//113 69//113
f 67//114 76//114 75//114
f 68//115 79//115 80//115
f 68//116 80//116 70//116
f 68//117 69//117 79//117
f 69//118 78//118 81//118
f 69//119 81//119 82//119
f 69//120 82//120 79//120
f 71//121 80//121 79//121
f 71//122 79//122 82//122
f 71//123 82//123 72//123
f 72//124 81//124 83//124
f 72//125 83//125 73//125
f 72//126 82//126 81//126
f 73//127 83//127 74//127
f 74//128 83//128 77//128
f 74//129 77//129 75//129
f 77//130 83//130 78//130
f 78//131 83//131 81//131
o UCX_Object_8_3
v -0.006791 0.041670 0.009367
v -0.005851 0.041670 0.009302
v -0.006773 0.042141 0.009334
v -0.007281 0.041670 0.008229
v -0.003199 0.041670 0.008918
v 0.000013 0.049713 0.008050
v -0.004812 0.047785 0.008362
v -0.007285 0.042002 0.008166
v -0.006786 0.041670 0.001363
v 0.000013 0.046216 0.008183
v 0.000013 0.046224 0.008183
v -0.002952 0.041670 0.007954
v 0.000013 0.050171 0.006797
v 0.000000 0.050176 0.006796
v 0.000000 0.049717 0.008049
v -0.005127 0.048109 0.007130
v -0.006773 0.041992 0.001071
v -0.006783 0.041670 0.001341
v -0.002637 0.041670 0.006680
v 0.000013 0.045503 0.006057
v 0.000013 0.049568 0.000476
v 0.000000 0.049571 0.000459
v -0.004812 0.047640 0.000771
v -0.006738 0.041670 0.001073
v -0.002999 0.041670 0.003613
v 0.000013 0.046094 0.000878
v 0.000013 0.049566 0.000460
v -0.003244 0.041670 0.001592
vn 0.0692 0.0674 0.9953
vn -0.9167 0.0611 0.3948
vn -0.0000 -1.0000 -0.0000
vn -0.0002 -1.0000 -0.0000
vn 0.1430 0.0495 0.9885
vn 0.0827 0.0940 0.9921
vn -0.8694 0.3603 0.3380
vn -0.9169 0.0627 0.3942
vn -0.0050 0.1714 0.9852
vn -0.9971 -0.0264 -0.0718
vn 0.2232 -0.0000 0.9748
vn 0.1722 0.0374 0.9843
vn 0.8144 -0.5417 0.2083
vn 1.0000 -0.0000 -0.0000
vn 0.3232 0.8888 0.3248
vn 0.2665 0.9051 0.3314
vn -0.0089 0.1811 0.9834
vn -0.3343 0.8850 0.3240
vn -0.3363 0.8859 0.3195
vn -0.8752 0.3634 0.3193
vn -0.9442 0.3220 -0.0685
vn -0.9971 -0.0253 -0.0718
vn -0.9828 -0.1011 -0.1547
vn 0.8157 -0.5422 0.2017
vn 0.8225 -0.5393 0.1808
vn 0.3667 0.9261 -0.0883
vn 0.3532 0.9313 -0.0888
vn -0.3759 0.9225 -0.0880
vn -0.3773 0.9220 -0.0867
vn -0.9435 0.3238 -0.0705
vn -0.1035 -0.0169 -0.9945
vn -0.9802 -0.1096 -0.1648
vn 0.7951 -0.5992 -0.0937
vn 0.8158 -0.5747 -0.0655
vn 0.3661 0.9252 -0.1001
vn 0.0281 -0.1012 -0.9945
vn -0.0511 -0.0340 -0.9981
vn 0.0497 -0.1195 -0.9916
vn 0.1419 -0.2585 -0.9555
vn 0.7941 -0.6001 -0.0963
s 0
usemtl random_material.006
f 84//132 85//132 86//132
f 84//133 86//133 87//133
f 84//134 87//134 92//134
f 84//135 92//135 101//135
f 84//134 101//134 107//134
f 84//134 107//134 111//134
f 84//134 111//134 108//134
f 84//134 108//134 102//134
f 84//134 102//134 95//134
f 84//134 95//134 88//134
f 84//134 88//134 85//134
f 85//136 88//136 89//136
f 85//137 89//137 86//137
f 86//138 90//138 91//138
f 86//139 91//139 87//139
f 86//140 89//140 90//140
f 87//141 91//141 92//141
f 88//142 93//142 94//142
f 88//143 94//143 89//143
f 88//144 95//144 93//144
f 89//145 94//145 93//145
f 89//145 93//145 103//145
f 89//145 103//145 109//145
f 89//145 109//145 110//145
f 89//145 110//145 104//145
f 89//145 104//145 96//145
f 89//146 96//146 97//146
f 89//147 97//147 98//147
f 89//148 98//148 90//148
f 90//149 98//149 97//149
f 90//150 97//150 99//150
f 90//151 99//151 91//151
f 91//152 99//152 100//152
f 91//153 100//153 92//153
f 92//154 100//154 101//154
f 93//155 95//155 102//155
f 93//156 102//156 103//156
f 96//157 104//157 97//157
f 97//158 104//158 105//158
f 97//159 105//159 106//159
f 97//160 106//160 99//160
f 99//161 106//161 100//161
f 100//162 106//162 107//162
f 100//163 107//163 101//163
f 102//164 108//164 109//164
f 102//165 109//165 103//165
f 104//166 110//166 105//166
f 105//167 110//167 107//167
f 105//168 107//168 106//168
f 107//169 110//169 109//169
f 107//170 109//170 111//170
f 108//171 111//171 109//171
o UCX_Object_8_4
v -0.007858 -0.030240 0.007080
v -0.000369 -0.030240 0.010128
v -0.006713 -0.030240 0.003083
v -0.022219 -0.047229 0.005227
v 0.000004 -0.030240 0.010239
v 0.000004 -0.030240 0.001904
v -0.017862 -0.045615 0.000626
v -0.019152 -0.047985 0.000879
v -0.022407 -0.047985 0.005233
v -0.018055 -0.047985 0.005820
v -0.010614 -0.047985 0.006493
v 0.010617 -0.047985 0.006492
v 0.018058 -0.047985 0.005820
v 0.022415 -0.047985 0.005235
v 0.022227 -0.047227 0.005229
v 0.000372 -0.030240 0.010128
v 0.006712 -0.030240 0.003083
v 0.017861 -0.045615 0.000627
v 0.000004 -0.045348 -0.000995
v -0.013940 -0.047985 0.000178
v 0.000004 -0.047985 -0.001097
v 0.019151 -0.047985 0.000880
v 0.007862 -0.030240 0.007080
v 0.013943 -0.047985 0.000178
vn -0.0000 1.0000 -0.0000
vn -0.7351 0.6444 -0.2106
vn -0.3683 0.2126 0.9051
vn -0.2841 0.0900 0.9546
vn -0.1663 0.2720 -0.9478
vn -0.6870 0.5701 -0.4506
vn -0.7394 0.3405 -0.5808
vn -0.7861 0.1910 -0.5878
vn -0.2751 0.0771 0.9583
vn -0.1328 -0.1101 0.9850
vn -0.0889 -0.1545 0.9840
vn 0.0001 -0.2066 0.9784
vn 0.0888 -0.1547 0.9840
vn 0.1322 -0.1108 0.9850
vn 0.2748 0.0768 0.9584
vn 0.2871 0.0944 0.9532
vn 0.1665 0.2721 -0.9478
vn 0.0917 0.1877 -0.9779
vn -0.0915 0.1877 -0.9780
vn -0.1333 -0.0332 -0.9905
vn -0.0909 0.0385 -0.9951
vn -0.0910 0.0376 -0.9951
vn -0.0000 -1.0000 -0.0000
vn 0.7855 0.1904 -0.5888
vn 0.7388 0.3401 -0.5818
vn 0.6865 0.5699 -0.4516
vn 0.7349 0.6444 -0.2114
vn 0.3683 0.2129 0.9050
vn 0.1336 -0.0330 -0.9905
vn 0.0910 0.0382 -0.9951
vn 0.0910 0.0385 -0.9951
s 0
usemtl random_material.007
f 112//172 113//172 116//172
f 112//172 116//172 127//172
f 112//172 127//172 134//172
f 112//172 134//172 128//172
f 112//172 128//172 117//172
f 112//172 117//172 114//172
f 112//173 114//173 115//173
f 112//174 115//174 113//174
f 113//175 115//175 116//175
f 114//176 117//176 118//176
f 114//177 118//177 115//177
f 115//178 118//178 119//178
f 115//179 119//179 120//179
f 115//180 120//180 116//180
f 116//181 120//181 121//181
f 116//182 121//182 122//182
f 116//183 122//183 123//183
f 116//184 123//184 124//184
f 116//185 124//185 125//185
f 116//186 125//186 126//186
f 116//187 126//187 127//187
f 117//188 128//188 129//188
f 117//189 129//189 130//189
f 117//190 130//190 118//190
f 118//191 131//191 119//191
f 118//192 130//192 132//192
f 118//193 132//193 131//193
f 119//194 131//194 132//194
f 119//194 132//194 135//194
f 119//194 135//194 133//194
f 119//194 133//194 125//194
f 119//194 125//194 124//194
f 119//194 124//194 123//194
f 119//194 123//194 122//194
f 119//194 122//194 121//194
f 119//194 121//194 120//194
f 125//195 133//195 126//195
f 126//196 133//196 129//196
f 126//197 129//197 128//197
f 126//198 128//198 134//198
f 126//199 134//199 127//199
f 129//200 133//200 135//200
f 129//201 135//201 132//201
f 129//202 132//202 130//202
o UCX_Object_8_5
v -0.022406 -0.047985 0.005234
v -0.024007 -0.056891 0.001830
v -0.024626 -0.056891 0.005315
v -0.019398 -0.056891 0.006218
v -0.018057 -0.047985 0.005820
v -0.019154 -0.047985 0.000879
v -0.000005 -0.056404 -0.001420
v -0.012436 -0.056891 0.000272
v -0.013728 -0.048772 0.006438
v -0.000005 -0.056891 0.000227
v -0.010619 -0.047985 0.006493
v -0.013940 -0.047985 0.000178
v -0.000005 -0.047985 -0.001097
v -0.000005 -0.056891 -0.001400
v -0.000005 -0.047987 0.003146
v -0.002049 -0.047985 0.003665
v -0.000005 -0.047985 -0.001088
vn -0.9565 0.2369 -0.1700
vn -0.1698 0.0513 0.9841
vn -0.1333 0.0642 0.9890
vn -0.0000 1.0000 -0.0000
vn -0.0002 1.0000 -0.0000
vn -0.7508 0.3492 -0.5607
vn -0.1335 -0.0331 -0.9905
vn -0.1334 -0.0352 -0.9904
vn -0.0006 -1.0000 -0.0000
vn -0.0000 -1.0000 -0.0000
vn -0.1295 0.0636 0.9895
vn 0.2811 -0.3051 0.9099
vn -0.0131 -0.0179 0.9998
vn -0.0865 0.2750 0.9576
vn -0.1333 -0.0328 -0.9905
vn 1.0000 -0.0000 -0.0000
vn -0.1332 -0.0394 -0.9903
vn -0.0910 0.0382 -0.9951
vn 0.2870 -0.2984 0.9103
vn 0.0055 0.9998 0.0167
vn 0.0014 1.0000 0.0006
s 0
usemtl random_material.008
f 136//203 137//203 138//203
f 136//204 138//204 139//204
f 136//205 139//205 140//205
f 136//206 140//206 146//206
f 136//206 146//206 151//206
f 136//206 151//206 152//206
f 136//207 152//207 148//207
f 136//206 148//206 147//206
f 136//206 147//206 141//206
f 136//208 141//208 137//208
f 137//209 141//209 142//209
f 137//210 142//210 143//210
f 137//211 143//211 149//211
f 137//212 149//212 145//212
f 137//212 145//212 139//212
f 137//212 139//212 138//212
f 139//213 144//213 140//213
f 139//214 145//214 146//214
f 139//215 146//215 144//215
f 140//216 144//216 146//216
f 141//217 147//217 142//217
f 142//218 148//218 152//218
f 142//218 152//218 150//218
f 142//218 150//218 145//218
f 142//218 145//218 149//218
f 142//219 149//219 143//219
f 142//220 147//220 148//220
f 145//221 150//221 146//221
f 146//222 150//222 151//222
f 150//223 152//223 151//223
o UCX_Object_8_6
v -0.000003 -0.047985 -0.001096
v -0.000003 -0.047985 -0.001088
v 0.000002 -0.047985 -0.001097
v -0.000003 -0.056404 -0.001419
v -0.000003 -0.047987 0.003145
v 0.000002 -0.047985 0.003145
v 0.000002 -0.056405 -0.001420
v 0.013942 -0.047985 0.000178
v -0.000003 -0.056891 -0.001400
v -0.000003 -0.056891 0.000227
v 0.010621 -0.047985 0.006492
v 0.000002 -0.056891 -0.001401
v 0.019155 -0.047985 0.000880
v 0.024006 -0.056891 0.001832
v 0.012437 -0.056891 0.000273
v 0.019401 -0.056891 0.006218
v 0.013732 -0.048772 0.006436
v 0.018060 -0.047985 0.005820
v 0.022415 -0.047985 0.005236
v 0.024631 -0.056891 0.005315
v 0.022369 -0.047985 0.005242
vn -0.0000 1.0000 -0.0000
vn 0.0001 1.0000 -0.0000
vn -0.0009 1.0000 -0.0000
vn -0.1596 0.0378 -0.9865
vn -1.0000 -0.0000 -0.0000
vn -0.4744 0.8803 0.0005
vn -0.1446 0.0379 -0.9888
vn 0.0910 0.0382 -0.9951
vn -0.1710 -0.0391 -0.9845
vn -0.2867 -0.2984 0.9104
vn -0.2625 0.4869 0.8331
vn -0.1596 -0.0393 -0.9864
vn 0.1335 -0.0330 -0.9905
vn 0.1335 -0.0331 -0.9905
vn 0.1335 -0.0353 -0.9904
vn 0.1333 -0.0395 -0.9903
vn -0.0000 -1.0000 -0.0000
vn -0.2809 -0.3049 0.9100
vn 0.0135 -0.0175 0.9998
vn 0.0865 0.2738 0.9579
vn 0.7503 0.3487 -0.5616
vn 0.9564 0.2364 -0.1715
vn 0.1698 0.0511 0.9842
vn 0.1337 0.0638 0.9890
vn 0.1328 0.0641 0.9891
vn 0.1292 0.0636 0.9896
s 0
usemtl random_material.009
f 153//224 154//224 158//224
f 153//224 158//224 163//224
f 153//224 163//224 170//224
f 153//224 170//224 173//224
f 153//225 173//225 171//225
f 153//224 171//224 165//224
f 153//224 165//224 160//224
f 153//226 160//226 155//226
f 153//227 155//227 156//227
f 153//228 156//228 161//228
f 153//228 161//228 162//228
f 153//228 162//228 157//228
f 153//228 157//228 154//228
f 154//229 157//229 158//229
f 155//230 159//230 156//230
f 155//231 160//231 159//231
f 156//232 159//232 161//232
f 157//233 162//233 163//233
f 157//234 163//234 158//234
f 159//235 164//235 161//235
f 159//236 160//236 165//236
f 159//237 165//237 166//237
f 159//238 166//238 167//238
f 159//239 167//239 164//239
f 161//240 164//240 167//240
f 161//240 167//240 166//240
f 161//240 166//240 172//240
f 161//240 172//240 168//240
f 161//240 168//240 162//240
f 162//241 168//241 163//241
f 163//242 168//242 169//242
f 163//243 169//243 170//243
f 165//244 171//244 166//244
f 166//245 171//245 172//245
f 168//246 172//246 171//246
f 168//247 171//247 173//247
f 168//248 173//248 170//248
f 168//249 170//249 169//249
o UCX_Object_8_7
v 0.006793 0.041671 0.009367
v 0.006774 0.042142 0.009334
v 0.005852 0.041671 0.009301
v 0.007283 0.041671 0.008229
v 0.007287 0.042003 0.008166
v 0.004815 0.047784 0.008362
v 0.000013 0.049713 0.008050
v 0.003200 0.041671 0.008918
v 0.006787 0.041671 0.001362
v 0.005129 0.048110 0.007130
v 0.006774 0.041993 0.001072
v 0.000013 0.050171 0.006797
v 0.000013 0.046216 0.008184
v 0.002954 0.041671 0.007954
v 0.006784 0.041671 0.001340
v 0.004815 0.047640 0.000771
v 0.006739 0.041671 0.001073
v 0.000013 0.049567 0.000460
v 0.000013 0.045503 0.006057
v 0.002639 0.041671 0.006681
v 0.000013 0.046094 0.000878
v 0.003245 0.041671 0.001592
v 0.003001 0.041671 0.003613
vn -0.0691 0.0673 0.9953
vn -0.0000 -1.0000 -0.0000
vn -0.0022 -1.0000 -0.0000
vn 0.9167 0.0628 0.3947
vn 0.9165 0.0638 0.3949
vn 0.0050 0.1715 0.9852
vn -0.0828 0.0942 0.9921
vn 0.8692 0.3602 0.3388
vn -0.1430 0.0500 0.9885
vn 0.9971 -0.0264 -0.0720
vn 0.8752 0.3634 0.3193
vn 0.9971 -0.0253 -0.0720
vn 0.9442 0.3220 -0.0687
vn 0.3361 0.8859 0.3198
vn 0.3344 0.8850 0.3239
vn -1.0000 -0.0000 -0.0000
vn -0.1732 0.0375 0.9842
vn -0.8163 -0.5388 0.2081
vn 0.9814 -0.1054 -0.1602
vn 0.9435 0.3236 -0.0705
vn 0.3772 0.9221 -0.0868
vn 0.1098 -0.0148 -0.9938
vn 0.9804 -0.1088 -0.1643
vn 0.3759 0.9225 -0.0879
vn -0.8249 -0.5360 0.1798
vn -0.8175 -0.5392 0.2024
vn 0.0511 -0.0340 -0.9981
vn -0.0499 -0.1195 -0.9916
vn -0.1421 -0.2581 -0.9556
vn -0.8182 -0.5712 -0.0652
vn -0.7971 -0.5965 -0.0940
vn -0.7962 -0.5973 -0.0962
s 0
usemtl random_material.010
f 174//250 175//250 176//250
f 174//251 176//251 181//251
f 174//251 181//251 187//251
f 174//251 187//251 193//251
f 174//251 193//251 196//251
f 174//251 196//251 195//251
f 174//251 195//251 190//251
f 174//251 190//251 188//251
f 174//252 188//252 182//252
f 174//251 182//251 177//251
f 174//253 177//253 178//253
f 174//254 178//254 175//254
f 175//255 179//255 180//255
f 175//256 180//256 176//256
f 175//257 178//257 179//257
f 176//258 180//258 181//258
f 177//259 182//259 178//259
f 178//260 183//260 179//260
f 178//261 182//261 184//261
f 178//262 184//262 183//262
f 179//263 183//263 185//263
f 179//264 185//264 180//264
f 180//265 185//265 191//265
f 180//265 191//265 194//265
f 180//265 194//265 192//265
f 180//265 192//265 186//265
f 180//266 186//266 181//266
f 181//267 186//267 187//267
f 182//268 188//268 184//268
f 183//269 184//269 189//269
f 183//270 189//270 185//270
f 184//271 190//271 189//271
f 184//272 188//272 190//272
f 185//273 189//273 191//273
f 186//274 192//274 193//274
f 186//275 193//275 187//275
f 189//276 190//276 191//276
f 190//277 194//277 191//277
f 190//278 195//278 194//278
f 192//279 194//279 193//279
f 193//280 194//280 196//280
f 194//281 195//281 196//281
